{
  "accessors": [
    {
      "bufferView": 0,
      "componentType": 5126,
      "count": 14047,
      "max": [
        1.0000008344650269,
        1.2668743133544922,
        1.2807222604751587
      ],
      "min": [
        -1.0,
        -1.3121000528335571,
        -1.2785600423812866
      ],
      "type": "VEC3"
    },
    {
      "bufferView": 1,
      "componentType": 5125,
      "count": 23767,
      "type": "SCALAR"
    },
    {
      "bufferView": 2,
      "componentType": 5126,
      "count": 14047,
      "type": "VEC3"
    },
    {
      "bufferView": 3,
      "componentType": 5126,
      "count": 14047,
      "type": "VEC4"
    },
    {
      "bufferView": 4,
      "componentType": 5126,
      "count": 14047,
      "type": "VEC2"
    },
    {
      "bufferView": 5,
      "componentType": 5126,
      "count": 2143,
      "max": [
        1.0178697109222412,
        1.0178797245025635,
        1.0178817510604858
      ],
      "min": [
        -1.0178799629211426,
        -1.0178699493408203,
        -1.0178699493408203
      ],
      "type": "VEC3"
    },
    {
      "bufferView": 6,
      "componentType": 5125,
      "count": 4951,
      "type": "SCALAR"
    },
    {
      "bufferView": 7,
      "componentType": 5126,
      "count": 2143,
      "type": "VEC3"
    },
    {
      "bufferView": 8,
      "componentType": 5126,
      "count": 2143,
      "type": "VEC4"
    },
    {
      "bufferView": 9,
      "componentType": 5126,
      "count": 2143,
      "type": "VEC2"
    },
    {
      "bufferView": 10,
      "componentType": 5126,
      "count": 9,
      "type": "MAT4"
    },
    {
      "bufferView": 11,
      "componentType": 5123,
      "count": 14047,
      "type": "VEC4"
    },
    {
      "bufferView": 12,
      "componentType": 5126,
      "count": 14047,
      "type": "VEC4"
    },
    {
      "bufferView": 13,
      "componentType": 5123,
      "count": 2143,
      "type": "VEC4"
    },
    {
      "bufferView": 14,
      "componentType": 5126,
      "count": 2143,
      "type": "VEC4"
    },
    {
      "bufferView": 15,
      "componentType": 5126,
      "count": 300,
      "max": [
        11.960000038146973
      ],
      "min": [
        8.940696516468449e-10
      ],
      "type": "SCALAR"
    },
    {
      "bufferView": 16,
      "componentType": 5126,
      "count": 300,
      "type": "VEC4"
    },
    {
      "bufferView": 17,
      "componentType": 5126,
      "count": 136,
      "max": [
        11.960000038146973
      ],
      "min": [
        0.0
      ],
      "type": "SCALAR"
    },
    {
      "bufferView": 18,
      "componentType": 5126,
      "count": 136,
      "type": "VEC3"
    },
    {
      "bufferView": 19,
      "componentType": 5126,
      "count": 300,
      "max": [
        11.960000038146973
      ],
      "min": [
        0.0
      ],
      "type": "SCALAR"
    },
    {
      "bufferView": 20,
      "componentType": 5126,
      "count": 300,
      "type": "VEC4"
    },
    {
      "bufferView": 21,
      "componentType": 5126,
      "count": 220,
      "max": [
        11.960000038146973
      ],
      "min": [
        0.0
      ],
      "type": "SCALAR"
    },
    {
      "bufferView": 22,
      "componentType": 5126,
      "count": 220,
      "type": "VEC3"
    },
    {
      "bufferView": 23,
      "componentType": 5126,
      "count": 300,
      "max": [
        11.960000038146973
      ],
      "min": [
        0.0
      ],
      "type": "SCALAR"
    },
    {
      "bufferView": 24,
      "componentType": 5126,
      "count": 300,
      "type": "VEC4"
    },
    {
      "bufferView": 25,
      "componentType": 5126,
      "count": 192,
      "max": [
        11.960000038146973
      ],
      "min": [
        0.0
      ],
      "type": "SCALAR"
    },
    {
      "bufferView": 26,
      "componentType": 5126,
      "count": 192,
      "type": "VEC3"
    },
    {
      "bufferView": 27,
      "componentType": 5126,
      "count": 300,
      "max": [
        11.960000038146973
      ],
      "min": [
        0.0
      ],
      "type": "SCALAR"
    },
    {
      "bufferView": 28,
      "componentType": 5126,
      "count": 300,
      "type": "VEC4"
    },
    {
      "bufferView": 29,
      "componentType": 5126,
      "count": 290,
      "max": [
        11.960000038146973
      ],
      "min": [
        0.0
      ],
      "type": "SCALAR"
    },
    {
      "bufferView": 30,
      "componentType": 5126,
      "count": 290,
      "type": "VEC3"
    },
    {
      "bufferView": 31,
      "componentType": 5126,
      "count": 300,
      "max": [
        11.960000038146973
      ],
      "min": [
        0.0
      ],
      "type": "SCALAR"
    },
    {
      "bufferView": 32,
      "componentType": 5126,
      "count": 300,
      "type": "VEC4"
    },
    {
      "bufferView": 33,
      "componentType": 5126,
      "count": 265,
      "max": [
        11.960000038146973
      ],
      "min": [
        0.0
      ],
      "type": "SCALAR"
    },
    {
      "bufferView": 34,
      "componentType": 5126,
      "count": 265,
      "type": "VEC3"
    },
    {
      "bufferView": 35,
      "componentType": 5126,
      "count": 300,
      "max": [
        11.960000038146973
      ],
      "min": [
        0.0
      ],
      "type": "SCALAR"
    },
    {
      "bufferView": 36,
      "componentType": 5126,
      "count": 300,
      "type": "VEC4"
    },
    {
      "bufferView": 37,
      "componentType": 5126,
      "count": 248,
      "max": [
        11.960000038146973
      ],
      "min": [
        0.0
      ],
      "type": "SCALAR"
    },
    {
      "bufferView": 38,
      "componentType": 5126,
      "count": 248,
      "type": "VEC3"
    },
    {
      "bufferView": 39,
      "componentType": 5126,
      "count": 300,
      "max": [
        11.960000038146973
      ],
      "min": [
        0.0
      ],
      "type": "SCALAR"
    },
    {
      "bufferView": 40,
      "componentType": 5126,
      "count": 300,
      "type": "VEC4"
    },
    {
      "bufferView": 41,
      "componentType": 5126,
      "count": 293,
      "max": [
        11.960000038146973
      ],
      "min": [
        0.0
      ],
      "type": "SCALAR"
    },
    {
      "bufferView": 42,
      "componentType": 5126,
      "count": 293,
      "type": "VEC3"
    },
    {
      "bufferView": 43,
      "componentType": 5126,
      "count": 300,
      "max": [
        11.960000038146973
      ],
      "min": [
        0.0
      ],
      "type": "SCALAR"
    },
    {
      "bufferView": 44,
      "componentType": 5126,
      "count": 300,
      "type": "VEC4"
    },
    {
      "bufferView": 45,
      "componentType": 5126,
      "count": 128,
      "max": [
        11.960000038146973
      ],
      "min": [
        0.0
      ],
      "type": "SCALAR"
    },
    {
      "bufferView": 46,
      "componentType": 5126,
      "count": 128,
      "type": "VEC3"
    }
  ],
  "animations": [
    {
      "channels": [
        {
          "sampler": 0,
          "target": {
            "node": 2,
            "path": "rotation"
          }
        },
        {
          "sampler": 1,
          "target": {
            "node": 2,
            "path": "scale"
          }
        },
        {
          "sampler": 2,
          "target": {
            "node": 3,
            "path": "rotation"
          }
        },
        {
          "sampler": 3,
          "target": {
            "node": 3,
            "path": "scale"
          }
        },
        {
          "sampler": 4,
          "target": {
            "node": 4,
            "path": "rotation"
          }
        },
        {
          "sampler": 5,
          "target": {
            "node": 4,
            "path": "scale"
          }
        },
        {
          "sampler": 6,
          "target": {
            "node": 5,
            "path": "rotation"
          }
        },
        {
          "sampler": 7,
          "target": {
            "node": 5,
            "path": "scale"
          }
        },
        {
          "sampler": 8,
          "target": {
            "node": 6,
            "path": "rotation"
          }
        },
        {
          "sampler": 9,
          "target": {
            "node": 6,
            "path": "scale"
          }
        },
        {
          "sampler": 10,
          "target": {
            "node": 7,
            "path": "rotation"
          }
        },
        {
          "sampler": 11,
          "target": {
            "node": 7,
            "path": "scale"
          }
        },
        {
          "sampler": 12,
          "target": {
            "node": 8,
            "path": "rotation"
          }
        },
        {
          "sampler": 13,
          "target": {
            "node": 8,
            "path": "scale"
          }
        },
        {
          "sampler": 14,
          "target": {
            "node": 9,
            "path": "rotation"
          }
        },
        {
          "sampler": 15,
          "target": {
            "node": 9,
            "path": "scale"
          }
        }
      ],
      "name": "Action",
      "samplers": [
        {
          "input": 15,
          "interpolation": "LINEAR",
          "output": 16
        },
        {
          "input": 17,
          "interpolation": "LINEAR",
          "output": 18
        },
        {
          "input": 19,
          "interpolation": "LINEAR",
          "output": 20
        },
        {
          "input": 21,
          "interpolation": "LINEAR",
          "output": 22
        },
        {
          "input": 23,
          "interpolation": "LINEAR",
          "output": 24
        },
        {
          "input": 25,
          "interpolation": "LINEAR",
          "output": 26
        },
        {
          "input": 27,
          "interpolation": "LINEAR",
          "output": 28
        },
        {
          "input": 29,
          "interpolation": "LINEAR",
          "output": 30
        },
        {
          "input": 31,
          "interpolation": "LINEAR",
          "output": 32
        },
        {
          "input": 33,
          "interpolation": "LINEAR",
          "output": 34
        },
        {
          "input": 35,
          "interpolation": "LINEAR",
          "output": 36
        },
        {
          "input": 37,
          "interpolation": "LINEAR",
          "output": 38
        },
        {
          "input": 39,
          "interpolation": "LINEAR",
          "output": 40
        },
        {
          "input": 41,
          "interpolation": "LINEAR",
          "output": 42
        },
        {
          "input": 43,
          "interpolation": "LINEAR",
          "output": 44
        },
        {
          "input": 45,
          "interpolation": "LINEAR",
          "output": 46
        }
      ]
    }
  ],
  "asset": {
    "version": "2.0"
  },
  "bufferViews": [
    {
      "buffer": 0,
      "byteLength": 168564,
      "target": 34962
    },
    {
      "buffer": 1,
      "byteLength": 95068,
      "target": 34963
    },
    {
      "buffer": 2,
      "byteLength": 168564,
      "target": 34962
    },
    {
      "buffer": 3,
      "byteLength": 224752,
      "target": 34962
    },
    {
      "buffer": 4,
      "byteLength": 112376,
      "target": 34962
    },
    {
      "buffer": 5,
      "byteLength": 25716,
      "target": 34962
    },
    {
      "buffer": 6,
      "byteLength": 19804,
      "target": 34963
    },
    {
      "buffer": 7,
      "byteLength": 25716,
      "target": 34962
    },
    {
      "buffer": 8,
      "byteLength": 34288,
      "target": 34962
    },
    {
      "buffer": 9,
      "byteLength": 17144,
      "target": 34962
    },
    {
      "buffer": 10,
      "byteLength": 576
    },
    {
      "buffer": 11,
      "byteLength": 112376,
      "target": 34962
    },
    {
      "buffer": 12,
      "byteLength": 224752,
      "target": 34962
    },
    {
      "buffer": 13,
      "byteLength": 17144,
      "target": 34962
    },
    {
      "buffer": 14,
      "byteLength": 34288,
      "target": 34962
    },
    {
      "buffer": 15,
      "byteLength": 1200
    },
    {
      "buffer": 16,
      "byteLength": 4800
    },
    {
      "buffer": 17,
      "byteLength": 544
    },
    {
      "buffer": 18,
      "byteLength": 1632
    },
    {
      "buffer": 19,
      "byteLength": 1200
    },
    {
      "buffer": 20,
      "byteLength": 4800
    },
    {
      "buffer": 21,
      "byteLength": 880
    },
    {
      "buffer": 22,
      "byteLength": 2640
    },
    {
      "buffer": 23,
      "byteLength": 1200
    },
    {
      "buffer": 24,
      "byteLength": 4800
    },
    {
      "buffer": 25,
      "byteLength": 768
    },
    {
      "buffer": 26,
      "byteLength": 2304
    },
    {
      "buffer": 27,
      "byteLength": 1200
    },
    {
      "buffer": 28,
      "byteLength": 4800
    },
    {
      "buffer": 29,
      "byteLength": 1160
    },
    {
      "buffer": 30,
      "byteLength": 3480
    },
    {
      "buffer": 31,
      "byteLength": 1200
    },
    {
      "buffer": 32,
      "byteLength": 4800
    },
    {
      "buffer": 33,
      "byteLength": 1060
    },
    {
      "buffer": 34,
      "byteLength": 3180
    },
    {
      "buffer": 35,
      "byteLength": 1200
    },
    {
      "buffer": 36,
      "byteLength": 4800
    },
    {
      "buffer": 37,
      "byteLength": 992
    },
    {
      "buffer": 38,
      "byteLength": 2976
    },
    {
      "buffer": 39,
      "byteLength": 1200
    },
    {
      "buffer": 40,
      "byteLength": 4800
    },
    {
      "buffer": 41,
      "byteLength": 1172
    },
    {
      "buffer": 42,
      "byteLength": 3516
    },
    {
      "buffer": 43,
      "byteLength": 1200
    },
    {
      "buffer": 44,
      "byteLength": 4800
    },
    {
      "buffer": 45,
      "byteLength": 512
    },
    {
      "buffer": 46,
      "byteLength": 1536
    }
  ],
  "buffers": [
    {
      "byteLength": 168564,
      "uri": "data:application/octet-stream;base64,"
    },
    {
      "byteLength": 95068,
      "uri": "data:application/octet-stream;base64,"
    },
    {
      "byteLength": 168564,
      "uri": "data:application/octet-stream;base64,"
    },
    {
      "byteLength": 224752,
      "uri": "data:application/octet-stream;base64,"
    },
    {
      "byteLength": 112376,
      "uri": "data:application/octet-stream;base64,"
    },
    {
      "byteLength": 25716,
      "uri": "data:application/octet-stream;base64,"
    },
    {
      "byteLength": 19804,
      "uri": "data:application/octet-stream;base64,"
    },
    {
      "byteLength": 25716,
      "uri": "data:application/octet-stream;base64,"
    },
    {
      "byteLength": 34288,
      "uri": "data:application/octet-stream;base64,"
    },
    {
      "byteLength": 17144,
      "uri": "data:application/octet-stream;base64,"
    },
    {
      "byteLength": 576,
      "uri": "data:application/octet-stream;base64,"
    },
    {
      "byteLength": 112376,
      "uri": "data:application/octet-stream;base64,"
    },
    {
      "byteLength": 224752,
      "uri": "data:application/octet-stream;base64,"
    },
    {
      "byteLength": 17144,
      "uri": "data:application/octet-stream;base64,"
    },
    {
      "byteLength": 34288,
      "uri": "data:application/octet-stream;base64,"
    },
    {
      "byteLength": 1200,
      "uri": "data:application/octet-stream;base64,"
    },
    {
      "byteLength": 4800,
      "uri": "data:application/octet-stream;base64,"
    },
    {
      "byteLength": 544,
      "uri": "data:application/octet-stream;base64,"
    },
    {
      "byteLength": 1632,
      "uri": "data:application/octet-stream;base64,"
    },
    {
      "byteLength": 1200,
      "uri": "data:application/octet-stream;base64,"
    },
    {
      "byteLength": 4800,
      "uri": "data:application/octet-stream;base64,"
    },
    {
      "byteLength": 880,
      "uri": "data:application/octet-stream;base64,"
    },
    {
      "byteLength": 2640,
      "uri": "data:application/octet-stream;base64,"
    },
    {
      "byteLength": 1200,
      "uri": "data:application/octet-stream;base64,"
    },
    {
      "byteLength": 4800,
      "uri": "data:application/octet-stream;base64,"
    },
    {
      "byteLength": 768,
      "uri": "data:application/octet-stream;base64,"
    },
    {
      "byteLength": 2304,
      "uri": "data:application/octet-stream;base64,"
    },
    {
      "byteLength": 1200,
      "uri": "data:application/octet-stream;base64,"
    },
    {
      "byteLength": 4800,
      "uri": "data:application/octet-stream;base64,"
    },
    {
      "byteLength": 1160,
      "uri": "data:application/octet-stream;base64,"
    },
    {
      "byteLength": 3480,
      "uri": "data:application/octet-stream;base64,"
    },
    {
      "byteLength": 1200,
      "uri": "data:application/octet-stream;base64,"
    },
    {
      "byteLength": 4800,
      "uri": "data:application/octet-stream;base64,"
    },
    {
      "byteLength": 1060,
      "uri": "data:application/octet-stream;base64,"
    },
    {
      "byteLength": 3180,
      "uri": "data:application/octet-stream;base64,"
    },
    {
      "byteLength": 1200,
      "uri": "data:application/octet-stream;base64,"
    },
    {
      "byteLength": 4800,
      "uri": "data:application/octet-stream;base64,"
    },
    {
      "byteLength": 992,
      "uri": "data:application/octet-stream;base64,"
    },
    {
      "byteLength": 2976,
      "uri": "data:application/octet-stream;base64,"
    },
    {
      "byteLength": 1200,
      "uri": "data:application/octet-stream;base64,"
    },
    {
      "byteLength": 4800,
      "uri": "data:application/octet-stream;base64,"
    },
    {
      "byteLength": 1172,
      "uri": "data:application/octet-stream;base64,"
    },
    {
      "byteLength": 3516,
      "uri": "data:application/octet-stream;base64,"
    },
    {
      "byteLength": 1200,
      "uri": "data:application/octet-stream;base64,"
    },
    {
      "byteLength": 4800,
      "uri": "data:application/octet-stream;base64,"
    },
    {
      "byteLength": 512,
      "uri": "data:application/octet-stream;base64,"
    },
    {
      "byteLength": 1536,
      "uri": "data:application/octet-stream;base64,"
    }
  ],
  "extensionsUsed": [
    "KHR_materials_ior",
    "KHR_materials_emissive_strength",
    "KHR_materials_specular"
  ],
  "images": [
    {
      "uri": "textures/HologramEarthAnimated_ColorEmission.comb.png"
    },
    {
      "uri": "textures/HologramEarthAnimated_ColorEmission.png"
    },
    {
      "uri": "textures/Clouds_ColorEmission.comb.png"
    },
    {
      "uri": "textures/Clouds_ColorEmission.png"
    }
  ],
  "materials": [
    {
      "alphaMode": "BLEND",
      "emissiveFactor": [
        1.0,
        1.0,
        1.0
      ],
      "emissiveTexture": {
        "index": 1
      },
      "extensions": {
        "KHR_materials_emissive_strength": {
          "emissiveStrength": 1.0
        },
        "KHR_materials_ior": {
          "ior": 1.0499999523162842
        }
      },
      "name": "EarthHologram",
      "pbrMetallicRoughness": {
        "baseColorTexture": {
          "index": 0
        },
        "metallicFactor": 0.0,
        "roughnessFactor": 0.6
      }
    },
    {
      "alphaMode": "BLEND",
      "emissiveFactor": [
        1.0,
        1.0,
        1.0
      ],
      "emissiveTexture": {
        "index": 3
      },
      "extensions": {
        "KHR_materials_emissive_strength": {
          "emissiveStrength": 1.0
        },
        "KHR_materials_ior": {
          "ior": 1.0499999523162842
        },
        "KHR_materials_specular": {
          "specularFactor": 0.0
        }
      },
      "name": "Clouds",
      "pbrMetallicRoughness": {
        "baseColorTexture": {
          "index": 2
        },
        "metallicFactor": 0.0,
        "roughnessFactor": 0.6
      }
    }
  ],
  "meshes": [
    {
      "primitives": [
        {
          "attributes": {
            "JOINTS_0": 11,
            "NORMAL": 2,
            "POSITION": 0,
            "TANGENT": 3,
            "TEXCOORD_0": 4,
            "WEIGHTS_0": 12
          },
          "indices": 1,
          "material": 0,
          "mode": 5
        }
      ]
    },
    {
      "primitives": [
        {
          "attributes": {
            "JOINTS_0": 13,
            "NORMAL": 7,
            "POSITION": 5,
            "TANGENT": 8,
            "TEXCOORD_0": 9,
            "WEIGHTS_0": 14
          },
          "indices": 6,
          "material": 1,
          "mode": 5
        }
      ]
    }
  ],
  "nodes": [
    {
      "mesh": 0,
      "name": "_gltfNode_0",
      "skin": 0
    },
    {
      "mesh": 1,
      "name": "_gltfNode_1",
      "skin": 0
    },
    {
      "name": "Planet_0"
    },
    {
      "name": "Clouds_1",
      "rotation": [
        0.0,
        1.1920949999999747e-07,
        0.0,
        0.9999999999999929
      ],
      "scale": [
        1.0,
        1.0,
        1.0
      ],
      "translation": [
        0.0,
        0.0,
        0.0
      ]
    },
    {
      "name": "Ring1_2",
      "rotation": [
        -0.0990457681874686,
        0.36964380856559803,
        0.23911763337971292,
        0.8923990968172026
      ],
      "scale": [
        1.1000006198883057,
        1.100000023841858,
        1.0999993085861206
      ],
      "translation": [
        0.0,
        0.0,
        0.0
      ]
    },
    {
      "name": "Ring2_3",
      "rotation": [
        -0.379409524361062,
        0.12059048602706891,
        0.9159756139073941,
        0.049950197505520155
      ],
      "scale": [
        0.8500003218650818,
        0.8499999046325684,
        0.8500004410743713
      ],
      "translation": [
        0.0,
        0.0,
        0.0
      ]
    },
    {
      "name": "Ring3_4",
      "rotation": [
        -0.5065928402959693,
        0.41104177093929484,
        0.7025707812311133,
        0.2842580765155984
      ],
      "scale": [
        1.0000003576278687,
        1.0000008344650269,
        0.9999998807907104
      ],
      "translation": [
        0.0,
        0.0,
        0.0
      ]
    },
    {
      "name": "Ring4_5",
      "rotation": [
        0.4534044778677293,
        -0.3107732949394878,
        -0.6367897049619681,
        0.5406877197203537
      ],
      "scale": [
        0.9000001549720764,
        0.900000810623169,
        0.8999996781349182
      ],
      "translation": [
        0.0,
        0.0,
        0.0
      ]
    },
    {
      "name": "Ring5_6",
      "rotation": [
        -0.15664829498329413,
        0.38461774884757993,
        -0.34313210367249797,
        0.842490865457622
      ],
      "scale": [
        0.9499996900558472,
        0.9499995708465576,
        0.9500001072883606
      ],
      "translation": [
        0.0,
        -0.05798789858818054,
        0.0
      ]
    },
    {
      "name": "Ring6_7",
      "rotation": [
        0.0,
        0.0,
        0.0,
        1.0
      ],
      "scale": [
        1.0499999523162842,
        1.0499999523162842,
        1.0499999523162842
      ],
      "translation": [
        0.0,
        -0.05798789858818054,
        0.0
      ]
    },
    {
      "children": [
        2,
        3,
        4,
        5,
        6,
        7,
        8,
        9
      ],
      "name": "Master_8"
    },
    {
      "children": [
        10
      ],
      "name": "GLTF_created_0"
    },
    {
      "children": [
        11
      ],
      "name": "Armature_10"
    },
    {
      "children": [
        12
      ],
      "name": "Animated Hologram Planet Earth Sci-Fi 3D Model",
      "rotation": [
        -1.9753748434203095e-22,
        0.0,
        0.0,
        1.0
      ],
      "scale": [
        1.0,
        1.0,
        1.0
      ],
      "translation": [
        0.0,
        0.0,
        0.0
      ]
    }
  ],
  "samplers": [
    {
      "magFilter": 9729,
      "minFilter": 9987,
      "wrapS": 10497,
      "wrapT": 10497
    },
    {
      "magFilter": 9729,
      "minFilter": 9987,
      "wrapS": 10497,
      "wrapT": 10497
    },
    {
      "magFilter": 9729,
      "minFilter": 9987,
      "wrapS": 10497,
      "wrapT": 10497
    },
    {
      "magFilter": 9729,
      "minFilter": 9987,
      "wrapS": 10497,
      "wrapT": 10497
    }
  ],
  "scene": 0,
  "scenes": [
    {
      "nodes": [
        13,
        0,
        1
      ]
    }
  ],
  "skins": [
    {
      "inverseBindMatrices": 10,
      "joints": [
        2,
        3,
        4,
        5,
        6,
        7,
        8,
        9,
        10
      ]
    }
  ],
  "textures": [
    {
      "sampler": 0,
      "source": 0
    },
    {
      "sampler": 1,
      "source": 1
    },
    {
      "sampler": 2,
      "source": 2
    },
    {
      "sampler": 3,
      "source": 3
    }
  ]
}
